<svg xmlns="http://www.w3.org/2000/svg" xmlns:xlink="http://www.w3.org/1999/xlink" width="500" zoomAndPan="magnify" viewBox="0 0 375 374.999991" height="500" preserveAspectRatio="xMidYMid meet" version="1.0"><path stroke-linecap="round" transform="matrix(2.929687, 0, 0, 2.929687, 0.0000045, 0)" fill="none" stroke-linejoin="round" d="M 47.885335 58.52667 L 63.846669 74.489338 L 106.410672 31.924002 " stroke="#000000" stroke-width="10.641" stroke-opacity="1" stroke-miterlimit="4"/><path stroke-linecap="round" transform="matrix(2.929687, 0, 0, 2.929687, 0.0000045, 0)" fill="none" stroke-linejoin="round" d="M 106.413338 63.846671 L 106.413338 95.770673 C 106.413338 98.593339 105.292005 101.300006 103.296005 103.294673 C 101.301338 105.290673 98.593338 106.412007 95.772004 106.412007 L 31.924 106.412007 C 29.102667 106.412007 26.396 105.290673 24.4 103.294673 C 22.404 101.300006 21.282666 98.593339 21.282666 95.770673 L 21.282666 31.924002 C 21.282666 29.101335 22.404 26.394668 24.4 24.398668 C 26.396 22.404001 29.102667 21.282668 31.924 21.282668 L 79.809337 21.282668 " stroke="#000000" stroke-width="10.641" stroke-opacity="1" stroke-miterlimit="4"/></svg>