<svg xmlns="http://www.w3.org/2000/svg" xmlns:xlink="http://www.w3.org/1999/xlink" width="500" zoomAndPan="magnify" viewBox="0 0 375 374.999991" height="500" preserveAspectRatio="xMidYMid meet" version="1.0"><path stroke-linecap="round" transform="matrix(2.929687, 0, 0, 2.929687, 0.0000045, 0)" fill="none" stroke-linejoin="round" d="M 74.488003 15.961334 L 74.488003 37.244002 C 74.488003 38.656002 75.049336 40.009336 76.04667 41.006669 C 77.044003 42.004003 78.397337 42.565336 79.809337 42.565336 L 101.090671 42.565336 " stroke="#000000" stroke-width="10.641" stroke-opacity="1" stroke-miterlimit="4"/><path stroke-linecap="round" transform="matrix(2.929687, 0, 0, 2.929687, 0.0000045, 0)" fill="none" stroke-linejoin="round" d="M 90.450671 111.73334 L 37.245334 111.73334 C 34.422667 111.73334 31.716 110.612007 29.72 108.616007 C 27.724 106.620007 26.604 103.91334 26.604 101.092006 L 26.604 26.602668 C 26.604 23.781335 27.724 21.074668 29.72 19.078668 C 31.716 17.082668 34.422667 15.961334 37.245334 15.961334 L 74.489336 15.961334 L 101.092005 42.565336 L 101.092005 101.092006 C 101.092005 103.91334 99.970671 106.620007 97.974671 108.616007 C 95.980004 110.612007 93.273338 111.73334 90.450671 111.73334 Z M 90.450671 111.73334 " stroke="#000000" stroke-width="10.641" stroke-opacity="1" stroke-miterlimit="4"/><path stroke-linecap="round" transform="matrix(2.929687, 0, 0, 2.929687, 0.0000045, 0)" fill="none" stroke-linejoin="round" d="M 63.848002 58.52667 L 63.848002 90.449339 " stroke="#000000" stroke-width="10.641" stroke-opacity="1" stroke-miterlimit="4"/><path stroke-linecap="round" transform="matrix(2.929687, 0, 0, 2.929687, 0.0000045, 0)" fill="none" stroke-linejoin="round" d="M 47.885335 74.488005 L 63.846669 58.52667 L 79.808003 74.488005 " stroke="#000000" stroke-width="10.641" stroke-opacity="1" stroke-miterlimit="4"/></svg>