<svg width="128" height="128" viewBox="0 0 128 128" fill="none" xmlns="http://www.w3.org/2000/svg">
<path d="M74.4883 15.9619V37.2443C74.4883 38.6554 75.0488 40.0088 76.0467 41.0066C77.0445 42.0044 78.3978 42.5649 79.8089 42.5649H101.091" stroke="black" stroke-width="10.6412" stroke-linecap="round" stroke-linejoin="round"/>
<path d="M90.4508 111.733H37.2447C34.4225 111.733 31.7159 110.612 29.7203 108.616C27.7246 106.62 26.6035 103.914 26.6035 101.092V26.6031C26.6035 23.7809 27.7246 21.0743 29.7203 19.0787C31.7159 17.083 34.4225 15.9619 37.2447 15.9619H74.489L101.092 42.5649V101.092C101.092 103.914 99.9709 106.62 97.9753 108.616C95.9796 110.612 93.273 111.733 90.4508 111.733Z" stroke="black" stroke-width="10.6412" stroke-linecap="round" stroke-linejoin="round"/>
<path d="M63.8477 58.5264V90.45" stroke="black" stroke-width="10.6412" stroke-linecap="round" stroke-linejoin="round"/>
<path d="M47.8848 74.4882L63.8466 58.5264L79.8084 74.4882" stroke="black" stroke-width="10.6412" stroke-linecap="round" stroke-linejoin="round"/>
</svg>
