<svg width="128" height="129" viewBox="0 0 128 129" fill="none" xmlns="http://www.w3.org/2000/svg">
<path d="M6.2807 0H121.415C124.884 0 127.695 2.81095 127.695 6.27994V12.0733C127.695 15.5404 124.884 18.3532 121.415 18.3532H6.2807C2.81356 18.3532 0.000770569 15.5422 0.000770569 12.0733V6.27994C0.000770569 2.81095 2.81356 0 6.2807 0Z" fill="black"/>
<path d="M6.28127 36.7207H90.3978C93.8668 36.7207 96.6777 39.5316 96.6777 43.0006V48.794C96.6777 52.2611 93.8668 55.0739 90.3978 55.0739H6.2831C2.81596 55.0739 0.00317383 52.263 0.00317383 48.794V43.0006C0.00317383 39.5335 2.81412 36.7207 6.28127 36.7207Z" fill="black"/>
<path d="M6.30769 110.164H108.855C112.324 110.164 115.135 112.975 115.135 116.444V122.237C115.135 125.704 112.324 128.517 108.855 128.517H6.30769C2.84054 128.517 0.0277481 125.706 0.0277481 122.237H0.000106812V116.444H0.0277481C0.0277481 112.977 2.84054 110.164 6.30769 110.164Z" fill="black"/>
<path d="M0.00251007 79.7233C0.00251007 76.2543 2.81345 73.4434 6.28244 73.4434H77.8373C81.3062 73.4434 84.1172 76.2543 84.1172 79.7233V85.5166C84.1172 88.9838 81.3062 91.7966 77.8373 91.7966H6.28244C2.8153 91.7966 0.00251007 88.9856 0.00251007 85.5166V79.7233Z" fill="black"/>
</svg>
