<svg xmlns="http://www.w3.org/2000/svg" xmlns:xlink="http://www.w3.org/1999/xlink" width="500" zoomAndPan="magnify" viewBox="0 0 375 374.999991" height="500" preserveAspectRatio="xMidYMid meet" version="1.0"><path stroke-linecap="round" transform="matrix(15.625, 0, 0, 15.625, 0.0000045, 0)" fill="none" stroke-linejoin="round" d="M 3 12 C 3 12.14725 3.0035 12.2945 3.01075 12.44175 C 3.01775 12.58875 3.02875 12.73575 3.043 12.88225 C 3.0575 13.029 3.0755 13.17525 3.097 13.321 C 3.1185 13.46675 3.14375 13.61175 3.1725 13.75625 C 3.201 13.90075 3.23325 14.0445 3.269 14.1875 C 3.30475 14.33025 3.344 14.47225 3.38675 14.61325 C 3.4295 14.75425 3.47575 14.894 3.52525 15.03275 C 3.575 15.1715 3.62775 15.309 3.68425 15.445 C 3.7405 15.58125 3.80025 15.716 3.86325 15.849 C 3.926 15.98225 3.99225 16.11375 4.06175 16.24375 C 4.131 16.37375 4.20375 16.502 4.2795 16.62825 C 4.355 16.75475 4.43375 16.879 4.51575 17.00175 C 4.5975 17.12425 4.68225 17.2445 4.77 17.363 C 4.85775 17.48125 4.94825 17.5975 5.04175 17.71125 C 5.13525 17.82525 5.2315 17.93675 5.33025 18.046 C 5.42925 18.155 5.53075 18.26175 5.635 18.366 C 5.739 18.47025 5.84575 18.57175 5.955 18.67075 C 6.064 18.76975 6.1755 18.86575 6.2895 18.95925 C 6.40325 19.05275 6.51925 19.1435 6.63775 19.23125 C 6.756 19.319 6.8765 19.40375 6.999 19.48575 C 7.1215 19.5675 7.24575 19.64625 7.37225 19.722 C 7.4985 19.79775 7.62675 19.8705 7.7565 19.94 C 7.8865 20.0095 8.018 20.07575 8.15125 20.13875 C 8.2845 20.20175 8.419 20.26125 8.55525 20.31775 C 8.69125 20.374 8.82875 20.42725 8.96725 20.47675 C 9.106 20.5265 9.246 20.57275 9.387 20.6155 C 9.52775 20.65825 9.66975 20.6975 9.81275 20.73325 C 9.9555 20.769 10.09925 20.80125 10.24375 20.83 C 10.38825 20.85875 10.5335 20.884 10.67925 20.90575 C 10.82475 20.92725 10.971 20.94525 11.11775 20.95975 C 11.26425 20.97425 11.41125 20.985 11.55825 20.99225 C 11.7055 20.9995 11.85275 21.003 12 21.003 C 12.14725 21.003 12.2945 20.9995 12.44175 20.99225 C 12.58875 20.985 12.73575 20.97425 12.88225 20.95975 C 13.029 20.94525 13.175249 20.92725 13.320749 20.90575 C 13.466499 20.884 13.611749 20.85875 13.756249 20.83 C 13.900749 20.80125 14.044499 20.769 14.187249 20.73325 C 14.330249 20.6975 14.472249 20.65825 14.612999 20.6155 C 14.753999 20.57275 14.893999 20.5265 15.032749 20.47675 C 15.171249 20.42725 15.308749 20.374 15.444749 20.31775 C 15.580999 20.26125 15.715499 20.20175 15.848749 20.13875 C 15.981999 20.07575 16.113499 20.0095 16.243499 19.94 C 16.373249 19.8705 16.501499 19.79775 16.627749 19.722 C 16.754249 19.64625 16.878499 19.5675 17.000999 19.48575 C 17.123499 19.40375 17.243999 19.319 17.362249 19.23125 C 17.480749 19.1435 17.596749 19.05275 17.710499 18.95925 C 17.824499 18.86575 17.935999 18.76975 18.044999 18.67075 C 18.154249 18.57175 18.260999 18.47025 18.364999 18.366 C 18.469249 18.26175 18.570749 18.155 18.669749 18.046 C 18.768499 17.93675 18.864749 17.82525 18.958249 17.71125 C 19.051749 17.5975 19.142249 17.48125 19.229999 17.363 C 19.317749 17.2445 19.402499 17.12425 19.484249 17.00175 C 19.566249 16.879 19.644999 16.75475 19.720499 16.62825 C 19.796249 16.502 19.868999 16.37375 19.938249 16.24375 C 20.007749 16.11375 20.073999 15.98225 20.136749 15.849 C 20.199749 15.716 20.259499 15.58125 20.315749 15.445 C 20.372249 15.309 20.424999 15.1715 20.474749 15.03275 C 20.524249 14.894 20.570499 14.75425 20.613249 14.61325 C 20.655999 14.47225 20.695249 14.33025 20.730999 14.1875 C 20.766749 14.0445 20.798999 13.90075 20.827499 13.75625 C 20.856249 13.61175 20.881499 13.46675 20.902999 13.321 C 20.924499 13.17525 20.942499 13.029 20.956999 12.88225 C 20.971249 12.73575 20.982249 12.58875 20.989249 12.44175 C 20.996499 12.2945 20.999999 12.14725 20.999999 12 C 20.999999 11.85275 20.996249 11.7055 20.988999 11.5585 C 20.981749 11.4115 20.970749 11.2645 20.956499 11.118 C 20.941999 10.9715 20.923749 10.8255 20.902249 10.67975 C 20.880499 10.534 20.855249 10.389 20.826499 10.24475 C 20.797749 10.10025 20.765499 9.9565 20.729749 9.81375 C 20.693749 9.671 20.654499 9.529 20.611749 9.38825 C 20.568999 9.24725 20.522749 9.1075 20.472999 8.96875 C 20.423499 8.83025 20.370499 8.69275 20.313999 8.55675 C 20.257749 8.42075 20.197999 8.28625 20.134999 8.153 C 20.071999 8.02 20.005749 7.8885 19.936249 7.75875 C 19.866749 7.62875 19.794249 7.50075 19.718499 7.3745 C 19.642749 7.24825 19.563999 7.12375 19.482249 7.00125 C 19.400249 6.879 19.315499 6.7585 19.227749 6.64025 C 19.139999 6.522 19.049499 6.406 18.955999 6.29225 C 18.862499 6.1785 18.766249 6.067 18.667499 5.95775 C 18.568499 5.84875 18.466999 5.74225 18.362749 5.638 C 18.258749 5.534 18.151999 5.4325 18.042999 5.3335 C 17.933749 5.23475 17.822249 5.1385 17.708499 5.04525 C 17.594749 4.95175 17.478499 4.86125 17.360249 4.7735 C 17.241999 4.68575 17.121499 4.601 16.999249 4.51925 C 16.876749 4.4375 16.752249 4.35875 16.625999 4.283 C 16.499749 4.20725 16.371499 4.13475 16.241749 4.06525 C 16.111749 3.996 15.980249 3.92975 15.847249 3.86675 C 15.713999 3.804 15.579499 3.74425 15.443499 3.688 C 15.307499 3.6315 15.169999 3.5785 15.031249 3.529 C 14.892749 3.4795 14.752999 3.43325 14.611999 3.3905 C 14.470999 3.34775 14.329249 3.3085 14.186249 3.27275 C 14.043499 3.237 13.899749 3.20475 13.755499 3.176 C 13.610999 3.14725 13.465999 3.122 13.320249 3.1005 C 13.174499 3.07875 13.0285 3.06075 12.882 3.0465 C 12.7355 3.032 12.5885 3.02125 12.4415 3.014 C 12.2945 3.00675 12.14725 3.003 12 3.003 C 11.85275 3.003 11.7055 3.00675 11.5585 3.014 C 11.4115 3.02125 11.2645 3.032 11.118 3.0465 C 10.9715 3.06075 10.8255 3.07875 10.67975 3.1005 C 10.534 3.122 10.389 3.14725 10.2445 3.176 C 10.10025 3.20475 9.9565 3.237 9.81375 3.27275 C 9.67075 3.3085 9.529 3.34775 9.388 3.3905 C 9.247 3.43325 9.10725 3.4795 8.96875 3.529 C 8.83 3.5785 8.6925 3.6315 8.5565 3.688 C 8.4205 3.74425 8.286 3.804 8.15275 3.86675 C 8.01975 3.92975 7.88825 3.996 7.75825 4.06525 C 7.6285 4.13475 7.50025 4.20725 7.374 4.283 C 7.24775 4.35875 7.12325 4.4375 7.00075 4.51925 C 6.8785 4.601 6.758 4.68575 6.63975 4.7735 C 6.5215 4.86125 6.40525 4.95175 6.2915 5.04525 C 6.17775 5.1385 6.06625 5.23475 5.957 5.3335 C 5.848 5.4325 5.74125 5.534 5.63725 5.638 C 5.533 5.74225 5.4315 5.84875 5.3325 5.95775 C 5.23375 6.067 5.1375 6.1785 5.044 6.29225 C 4.9505 6.406 4.86 6.522 4.77225 6.64025 C 4.6845 6.7585 4.59975 6.879 4.51775 7.00125 C 4.436 7.12375 4.35725 7.24825 4.2815 7.3745 C 4.20575 7.50075 4.13325 7.62875 4.06375 7.75875 C 3.99425 7.8885 3.928 8.02 3.865 8.153 C 3.802 8.28625 3.74225 8.42075 3.686 8.55675 C 3.6295 8.69275 3.5765 8.83025 3.527 8.96875 C 3.47725 9.1075 3.431 9.24725 3.38825 9.38825 C 3.3455 9.529 3.30625 9.671 3.27025 9.81375 C 3.2345 9.9565 3.20225 10.10025 3.1735 10.24475 C 3.14475 10.389 3.1195 10.534 3.09775 10.67975 C 3.07625 10.8255 3.058 10.9715 3.0435 11.118 C 3.02925 11.2645 3.01825 11.4115 3.011 11.5585 C 3.00375 11.7055 3 11.85275 3 12 " stroke="#000000" stroke-width="1.5" stroke-opacity="1" stroke-miterlimit="4"/><path stroke-linecap="round" transform="matrix(15.625, 0, 0, 15.625, 0.0000045, 0)" fill="none" stroke-linejoin="round" d="M 9 12 L 14.999999 12 " stroke="#000000" stroke-width="1.5" stroke-opacity="1" stroke-miterlimit="4"/><path stroke-linecap="round" transform="matrix(15.625, 0, 0, 15.625, 0.0000045, 0)" fill="none" stroke-linejoin="round" d="M 12 9 L 12 15 " stroke="#000000" stroke-width="1.5" stroke-opacity="1" stroke-miterlimit="4"/></svg>