<svg xmlns="http://www.w3.org/2000/svg" xmlns:xlink="http://www.w3.org/1999/xlink" width="500" zoomAndPan="magnify" viewBox="0 0 375 374.999991" height="500" preserveAspectRatio="xMidYMid meet" version="1.0"><path fill="#000000" d="M 120.484375 73.609375 L 70.3125 123.777344 L 43.578125 97.046875 L 26.734375 113.890625 L 61.890625 149.046875 L 70.3125 157.105469 L 78.734375 149.046875 L 137.328125 90.453125 Z M 152.34375 105.46875 L 152.34375 128.90625 L 351.5625 128.90625 L 351.5625 105.46875 Z M 43.578125 214.234375 L 26.734375 231.078125 L 59.328125 263.671875 L 26.734375 296.265625 L 43.578125 313.109375 L 76.171875 280.515625 L 108.765625 313.109375 L 125.609375 296.265625 L 93.015625 263.671875 L 125.609375 231.078125 L 108.765625 214.234375 L 76.171875 246.824219 Z M 152.34375 246.09375 L 152.34375 269.53125 L 351.5625 269.53125 L 351.5625 246.09375 Z M 152.34375 246.09375 " fill-opacity="1" fill-rule="nonzero"/></svg>